:version 1.10
:name ASF
:units
  mass 1
  length 1
  angle deg
:documentation
  ASF file generated by Kaydara
:root
  axis xyz
  order  tx ty tz rx ry rz
  position 0 0 0
  orientation 0 0 0
:bonedata
  begin
    id 1
    name RightUpLegDummy
    direction -1 2.30186e-007 8.31532e-007
    length 4.04083
    axis 0 0 0 xyz
  end
  begin
    id 2
    name RightUpLeg
    direction -0.000919234 -0.999985 0.00544864
    length 17.4221
    axis -3.80308 -0.00076134 -0.0523649 xyz
    dof rx ry rz
  end
  begin
    id 3
    name RightLeg
    direction -0.000919271 -0.999984 -0.00555045
    length 17.1239
    axis 4.00314 0.0181274 -0.183583 xyz
    dof rx ry rz
  end
  begin
    id 4
    name RightFoot
    direction -2.57843e-005 -4.04509e-007 1
    length 6.72091
    axis 8.18909e-005 -0.122003 -0.403008 xyz
    dof rx ry rz
  end
  begin
    id 5
    name RightToes
    direction 0.00116825 -0.014069 0.9999
    length 3.85082
    axis 0.000514414 0.540638 -0.356797 xyz
    dof rx ry rz
  end
  begin
    id 6
    name SpineDummy
    direction 0.0168869 0.966876 -0.254689
    length 6.99894
    axis 0 0 0 xyz
  end
  begin
    id 7
    name Spine
    direction -0.0132008 0.999903 0.00446247
    length 11.1999
    axis -0.00148109 0.00725429 0.756411 xyz
    dof rx ry rz
  end
  begin
    id 8
    name Spine1
    direction 0 0 0
    length 0
    axis -0.000934958 0.0245693 1.46543 xyz
    dof rx ry rz
  end
  begin
    id 9
    name HEadDummy
    direction -0.0255732 0.999672 0.00128215
    length 3.43865
    axis -0.000934958 0.0245693 1.46543 xyz
  end
  begin
    id 10
    name HEad
    direction -0.0472656 0.980052 0.19304
    length 5.12695
    axis -0.000934954 0.0245693 1.46543 xyz
    dof rx ry rz
  end
  begin
    id 11
    name LeftShoulder1Dummy
    direction 0.953098 0.301717 -0.023914
    length 3.68488
    axis -0.000934958 0.0245693 1.46543 xyz
  end
  begin
    id 12
    name LeftShoulder1
    direction 0.962466 0.271167 0.0112566
    length 3.13809
    axis -0.000934958 0.0245693 1.46543 xyz
    dof rx ry rz
  end
  begin
    id 13
    name LeftArm
    direction 0.999943 0.00455037 -0.00961766
    length 11.3419
    axis -23.1648 0.685459 1.22814 xyz
    dof rx ry rz
  end
  begin
    id 14
    name LeftForeArm
    direction 0.999332 0.0131969 0.0340885
    length 8.70632
    axis -9.90633 0.618216 0.0826942 xyz
    dof rx ry rz
  end
  begin
    id 15
    name LeftHand
    direction 0.994373 -0.0366703 0.0993905
    length 5.32135
    axis 0.00675269 0.680415 0.445699 xyz
    dof rx ry rz
  end
  begin
    id 16
    name RightShoulderDummy
    direction -0.967298 0.252589 -0.0230903
    length 3.68488
    axis -0.000934958 0.0245693 1.46543 xyz
  end
  begin
    id 17
    name RightShoulder
    direction -0.975062 0.221602 0.0120823
    length 3.13809
    axis 0.216257 0.0246515 1.45863 xyz
    dof rx ry rz
  end
  begin
    id 18
    name RightArm
    direction -0.99886 -0.00851186 -0.0469687
    length 10.3947
    axis -23.196 0.23503 -0.532632 xyz
    dof rx ry rz
  end
  begin
    id 19
    name RightForeArm
    direction -0.99909 0.00114866 0.0426317
    length 8.68355
    axis -9.91764 -0.134943 0.610517 xyz
    dof rx ry rz
  end
  begin
    id 20
    name RightHand
    direction -0.992888 -0.0489538 0.10852
    length 5.28593
    axis -0.00275396 -0.197403 0.246414 xyz
    dof rx ry rz
  end
  begin
    id 21
    name LeftUpLegDummy
    direction 1 -2.30186e-007 -8.31532e-007
    length 4.04083
    axis 0 0 0 xyz
  end
  begin
    id 22
    name LeftUpLeg
    direction -0.000920097 -1 2.79241e-006
    length 17.4221
    axis -3.48782 0.00143434 -0.0532288 xyz
    dof rx ry rz
  end
  begin
    id 23
    name LeftLeg
    direction -0.000920097 -1 2.7912e-006
    length 17.1239
    axis 3.68162 -0.00806512 -0.0529896 xyz
    dof rx ry rz
  end
  begin
    id 24
    name LeftFoot
    direction -2.57845e-005 -3.987e-007 1
    length 6.72091
    axis 3.02372e-005 -0.00147829 -0.214229 xyz
    dof rx ry rz
  end
  begin
    id 25
    name LeftToes
    direction 0.00813577 -0.00488255 0.999955
    length 3.85048
    axis 3.89895e-005 -0.0014783 -0.214229 xyz
    dof rx ry rz
  end
:hierarchy
  begin
    root RightUpLegDummy SpineDummy LeftUpLegDummy
    RightUpLegDummy RightUpLeg
    RightUpLeg RightLeg
    RightLeg RightFoot
    RightFoot RightToes
    SpineDummy Spine
    Spine Spine1
    Spine1 HEadDummy LeftShoulder1Dummy RightShoulderDummy
    HEadDummy HEad
    LeftShoulder1Dummy LeftShoulder1
    LeftShoulder1 LeftArm
    LeftArm LeftForeArm
    LeftForeArm LeftHand
    RightShoulderDummy RightShoulder
    RightShoulder RightArm
    RightArm RightForeArm
    RightForeArm RightHand
    LeftUpLegDummy LeftUpLeg
    LeftUpLeg LeftLeg
    LeftLeg LeftFoot
    LeftFoot LeftToes
  end

:SAMPLES-PER-SECOND 30
:FULLY-SPECIFIED
:DEGREES
82
root  -43.3509 34.6272 35.1802 -168.2 5.63028 -179.684
RightUpLeg  -9.8132 -15.7569 4.55346
RightLeg  7.92177 -3.46266 -0.254982
RightFoot  -1.15105 0.00256075 0.220505
RightToes  -20.2955 -0.0873622 -0.185173
Spine  -2.50458 -0.373023 0.2841
Spine1  -5.0696 -0.672823 1.22723
HEad  -55.3636 6.13096 0.258151
LeftShoulder1  -1.94126e-019 -3.10601e-018 -2.51263e-017
LeftArm  -14.0201 25.1765 -82.3003
LeftForeArm  35.8804 -13.1743 -2.29738
LeftHand  -0.331607 -0.969086 6.18388
RightShoulder  -4.96962e-017 0 -2.36833e-017
RightArm  -25.0808 -25.2282 77.7574
RightForeArm  55.4927 15.7469 1.06415
RightHand  -0.427101 0.154194 -9.00105
LeftUpLeg  -11.0538 0.818399 1.23192
LeftLeg  13.8569 15.9411 2.82013
LeftFoot  -2.00568 -0.010613 -0.444744
LeftToes  -19.4636 1.46665e-006 1.03344e-007
83
root  -43.1783 34.5415 35.0553 -167.861 4.90965 -178.964
RightUpLeg  -9.78446 -16.2751 5.61455
RightLeg  7.88956 -3.47401 -0.253857
RightFoot  -1.65044 0.00050159 0.249926
RightToes  -20.1348 -0.0873622 -0.185173
Spine  -2.46077 -0.314718 0.617662
Spine1  -4.97671 -0.548036 1.88661
HEad  -55.1422 6.06 -0.291152
LeftShoulder1  -1.94126e-019 -3.10601e-018 -2.51263e-017
LeftArm  -13.5616 25.1536 -82.5677
LeftForeArm  35.5079 -15.4596 -2.70264
LeftHand  -0.328495 -0.909886 6.17932
RightShoulder  -4.96962e-017 0 -2.36833e-017
RightArm  -24.927 -25.3405 77.4619
RightForeArm  55.4817 15.6254 1.07399
RightHand  -0.402495 -0.0648206 -8.81315
LeftUpLeg  -13.596 0.341534 2.28759
LeftLeg  18.8633 15.5354 4.15408
LeftFoot  -3.56889 -0.0328467 -0.892732
LeftToes  -21.0447 1.46665e-006 1.03344e-007
84
root  -42.9942 34.4102 34.9074 -167.948 3.80045 -178.066
RightUpLeg  -9.38375 -17.3712 6.77641
RightLeg  8.09866 -3.24653 -0.249107
RightFoot  -2.38515 -0.00168324 0.281142
RightToes  -20.2291 -0.0873622 -0.185173
Spine  -2.21891 -0.227546 1.04448
Spine1  -4.48882 -0.369949 2.72306
HEad  -54.8874 5.66712 -0.838358
LeftShoulder1  -1.94126e-019 -3.10601e-018 -2.51263e-017
LeftArm  -12.8482 24.8813 -82.9843
LeftForeArm  34.8868 -18.5052 -3.23524
LeftHand  -0.285579 -1.00723 5.3115
RightShoulder  -4.96962e-017 0 -2.36833e-017
RightArm  -24.3525 -25.4783 76.9434
RightForeArm  55.2428 15.6475 1.07783
RightHand  -0.40106 -0.0450389 -8.75119
LeftUpLeg  -16.4623 0.0366766 3.55849
LeftLeg  25.1851 14.8362 5.75694
LeftFoot  -5.31781 -0.0716753 -1.38175
LeftToes  -20.2561 1.46665e-006 1.03344e-007
85
root  -42.8413 34.2891 34.7241 -168.436 2.28915 -177.572
RightUpLeg  -8.65714 -18.9514 7.40107
RightLeg  8.47209 -3.02687 -0.252064
RightFoot  -3.25512 -0.00390627 0.312903
RightToes  -20.419 -0.0873622 -0.185173
Spine  -1.75464 -0.192739 1.37273
Spine1  -3.56181 -0.312351 3.35903
HEad  -54.6049 5.04186 -1.38455
LeftShoulder1  -1.94126e-019 -3.10601e-018 -2.51263e-017
LeftArm  -12.0353 24.1563 -83.4129
LeftForeArm  33.9546 -21.3213 -3.6744
LeftHand  -0.273979 -0.998931 5.10594
RightShoulder  -4.96962e-017 0 -2.36833e-017
RightArm  -23.7314 -25.3185 76.4493
RightForeArm  55.1562 15.5542 1.08757
RightHand  -0.392982 -0.168586 -8.76631
LeftUpLeg  -19.4848 -0.0384186 4.31617
LeftLeg  32.1027 14.3404 7.62957
LeftFoot  -4.57489 -0.0545117 -1.20306
LeftToes  -24.8699 1.46665e-006 1.03344e-007
86
root  -42.7421 34.2057 34.4682 -168.957 0.592834 -177.585
RightUpLeg  -7.77651 -20.465 7.39311
RightLeg  8.81846 -3.11704 -0.278583
RightFoot  -4.1286 -0.00735884 0.36223
RightToes  -20.3807 -0.0873622 -0.185173
Spine  -1.35635 -0.156513 1.49305
Spine1  -2.76727 -0.267179 3.5905
HEad  -53.6573 4.11992 -1.82793
LeftShoulder1  -1.94126e-019 -3.10601e-018 -2.51263e-017
LeftArm  -10.8008 23.8267 -83.6542
LeftForeArm  32.1794 -24.6403 -4.11443
LeftHand  -0.230916 -0.2446 4.82336
RightShoulder  -4.96962e-017 0 -2.36833e-017
RightArm  -24.3607 -25.1425 76.2163
RightForeArm  56.5125 14.7324 1.15189
RightHand  -0.399356 -0.215238 -8.98412
LeftUpLeg  -22.5754 0.583834 4.15204
LeftLeg  38.6867 14.5299 9.95937
LeftFoot  -2.3342 -0.0158664 -0.617246
LeftToes  -27.2714 1.46665e-006 1.03344e-007
87
root  -42.6683 34.1741 34.1694 -169.385 -0.697693 -177.938
RightUpLeg  -7.00725 -21.5195 6.9876
RightLeg  9.17205 -3.51212 -0.335829
RightFoot  -4.62418 -0.00593756 0.420342
RightToes  -20.7553 -0.0873622 -0.185173
Spine  -1.04661 -0.0385002 1.44696
Spine1  -2.14777 -0.0600809 3.501
HEad  -51.9743 3.40979 -2.06256
LeftShoulder1  -1.94126e-019 -3.10601e-018 -2.51263e-017
LeftArm  -10.3137 23.861 -83.7527
LeftForeArm  31.1817 -27.077 -4.38915
LeftHand  -0.265638 -0.910889 5.01511
RightShoulder  -4.96962e-017 0 -2.36833e-017
RightArm  -25.6442 -24.9032 76.1404
RightForeArm  58.4725 13.4498 1.30708
RightHand  -0.396491 -0.308719 -9.07465
LeftUpLeg  -25.4127 2.05876 3.20045
LeftLeg  43.8258 15.6721 12.8275
LeftFoot  -1.24158 -0.00540499 -0.337275
LeftToes  -22.2833 1.46665e-006 1.03344e-007
88
root  -42.6414 34.1839 33.8497 -169.305 -1.42633 -178.988
RightUpLeg  -6.79177 -21.9703 5.92327
RightLeg  9.74926 -3.92651 -0.415458
RightFoot  -5.32268 -0.00298843 0.50434
RightToes  -20.8594 -0.0873622 -0.185173
Spine  -0.963916 0.145582 1.06868
Spine1  -1.9779 0.290679 2.74937
HEad  -49.3806 2.91932 -2.00772
LeftShoulder1  -1.94126e-019 -3.10601e-018 -2.51263e-017
LeftArm  -10.0061 24.6345 -83.3605
LeftForeArm  30.3367 -29.6802 -4.76867
LeftHand  -0.476133 -3.62433 6.39039
RightShoulder  -4.96962e-017 0 -2.36833e-017
RightArm  -27.8867 -24.7578 76.5553
RightForeArm  61.4064 11.9338 1.47024
RightHand  -0.4034 -0.338147 -9.28375
LeftUpLeg  -28.0284 3.51751 1.26079
LeftLeg  46.153 16.8727 14.8719
LeftFoot  -1.39656 -0.00749994 -0.453787
LeftToes  -20.6157 1.46665e-006 1.03344e-007
89
root  -42.6245 34.1808 33.5156 -169.039 -2.21173 -179.734
RightUpLeg  -6.55291 -22.4581 5.21629
RightLeg  9.9668 -4.32804 -0.474561
RightFoot  -5.84612 0.000797026 0.585995
RightToes  -21.0957 -0.0873622 -0.185173
Spine  -0.932161 0.357669 0.734285
Spine1  -1.90406 0.711715 2.08764
HEad  -46.5781 2.35612 -1.82109
LeftShoulder1  -1.94126e-019 -3.10601e-018 -2.51263e-017
LeftArm  -9.8856 25.5681 -82.8532
LeftForeArm  29.8578 -32.2623 -5.39611
LeftHand  -0.406553 -2.77245 6.00846
RightShoulder  -4.96962e-017 0 -2.36833e-017
RightArm  -30.1257 -24.6758 77.0236
RightForeArm  63.8893 10.6822 1.5346
RightHand  -0.405491 -0.507992 -9.63955
LeftUpLeg  -30.6131 4.8271 -0.428578
LeftLeg  45.9815 16.5765 14.5451
LeftFoot  -0.357496 -0.000557829 -0.0172898
LeftToes  -23.3326 1.46665e-006 1.03344e-007
90
root  -42.6162 34.179 33.0966 -168.944 -2.46555 179.461
RightUpLeg  -5.84425 -22.5533 4.25727
RightLeg  9.92004 -4.6134 -0.502013
RightFoot  -6.30928 0.00484247 0.659628
RightToes  -20.8709 -0.0873622 -0.185173
Spine  -0.825094 0.687517 0.347648
Spine1  -1.6814 1.37609 1.32301
HEad  -44.2602 2.02208 -1.73226
LeftShoulder1  -1.94126e-019 -3.10601e-018 -2.51263e-017
LeftArm  -10.1673 26.3698 -82.3162
LeftForeArm  29.8709 -33.277 -5.64238
LeftHand  -0.385615 -1.97478 6.26797
RightShoulder  -4.96962e-017 0 -2.36833e-017
RightArm  -30.8703 -24.7747 77.5386
RightForeArm  64.6336 10.2099 1.53548
RightHand  -0.390474 -0.726441 -9.69384
LeftUpLeg  -32.4301 5.99438 -2.10916
LeftLeg  43.4591 15.6976 12.6866
LeftFoot  1.51807 -0.00701071 0.69076
LeftToes  -26.8498 1.46665e-006 1.03344e-007
91
root  -42.6342 34.1461 32.6333 -168.574 -2.84032 178.804
RightUpLeg  -5.1233 -22.6648 3.50663
RightLeg  9.44402 -4.98164 -0.500198
RightFoot  -6.69576 0.00981961 0.741617
RightToes  -21.1638 -0.0873622 -0.185173
Spine  -0.783176 0.9104 0.021371
Spine1  -1.59256 1.84249 0.668153
HEad  -42.4796 1.97296 -1.84889
LeftShoulder1  -1.94126e-019 -3.10601e-018 -2.51263e-017
LeftArm  -11.4761 27.0513 -82.0312
LeftForeArm  30.1012 -33.3126 -5.63496
LeftHand  -0.443872 -2.84087 6.4897
RightShoulder  -4.96962e-017 0 -2.36833e-017
RightArm  -30.545 -24.7536 77.9164
RightForeArm  64.8611 10.1317 1.53416
RightHand  -0.392786 -0.648218 -9.59855
LeftUpLeg  -34.3657 5.91804 -3.32426
LeftLeg  40.0332 14.3831 10.3538
LeftFoot  3.0354 -0.0251587 1.11112
LeftToes  -29.3788 1.46665e-006 1.03344e-007
92
root  -42.6586 34.0944 32.1257 -168.123 -3.11266 178.276
RightUpLeg  -4.37367 -23.011 2.83963
RightLeg  8.90926 -4.99515 -0.45453
RightFoot  -7.26083 0.0143266 0.799349
RightToes  -21.0453 -0.0873622 -0.185173
Spine  -0.766281 1.1319 -0.248906
Spine1  -1.55831 2.3172 0.116152
HEad  -41.2751 2.00157 -2.15228
LeftShoulder1  -1.94126e-019 -3.10601e-018 -2.51263e-017
LeftArm  -12.8704 27.7116 -81.825
LeftForeArm  29.224 -32.4911 -5.47723
LeftHand  -0.350213 -1.03187 6.46627
RightShoulder  -4.96962e-017 0 -2.36833e-017
RightArm  -27.0838 -24.9262 78.0095
RightForeArm  62.6177 10.936 1.52983
RightHand  -0.361816 -0.861095 -9.23067
LeftUpLeg  -36.1306 6.04769 -4.30771
LeftLeg  35.7878 12.9555 8.00175
LeftFoot  3.01009 -0.0186786 0.972255
LeftToes  -28.908 1.46665e-006 1.03344e-007
93
root  -42.6967 34.0235 31.5686 -167.483 -3.06941 177.852
RightUpLeg  -3.79614 -22.9027 2.28295
RightLeg  8.43902 -5.16069 -0.426933
RightFoot  -7.69621 0.0197157 0.867506
RightToes  -21.797 -0.0917013 -0.191111
Spine  -0.805943 1.35751 -0.495478
Spine1  -1.6427 2.80804 -0.395913
HEad  -40.5589 2.32892 -2.78021
LeftShoulder1  -1.94126e-019 -3.10601e-018 -2.51263e-017
LeftArm  -15.0196 28.1356 -81.8623
LeftForeArm  28.9739 -29.5815 -4.79522
LeftHand  -0.404828 -1.53668 6.9522
RightShoulder  -4.96962e-017 0 -2.36833e-017
RightArm  -24.8871 -24.7865 78.0791
RightForeArm  61.438 11.6811 1.49156
RightHand  -0.358324 -0.86389 -9.1461
LeftUpLeg  -37.8903 5.55356 -4.87989
LeftLeg  31.6985 12.1438 6.38191
LeftFoot  4.12741 -0.0363164 1.16937
LeftToes  -32.1593 1.46665e-006 1.03344e-007
94
root  -42.7608 33.9295 30.9718 -166.783 -3.10941 177.427
RightUpLeg  -3.3453 -23.1929 1.67441
RightLeg  8.26928 -5.04326 -0.402205
RightFoot  -8.11179 0.0228122 0.895369
RightToes  -23.1033 -0.0994254 -0.201293
Spine  -0.840357 1.42961 -0.752381
Spine1  -1.71997 2.99971 -0.932111
HEad  -40.2488 3.00934 -3.67251
LeftShoulder1  -1.94126e-019 -3.10601e-018 -2.51263e-017
LeftArm  -17.0251 28.5622 -81.8538
LeftForeArm  28.6895 -26.1057 -4.03489
LeftHand  -0.399059 -1.30228 7.0765
RightShoulder  -4.96962e-017 0 -2.36833e-017
RightArm  -23.0709 -24.3049 78.1248
RightForeArm  60.2181 12.4617 1.42228
RightHand  -0.356819 -0.722128 -8.8452
LeftUpLeg  -39.5731 4.4591 -5.10929
LeftLeg  27.7014 12.2583 5.40106
LeftFoot  5.20741 -0.053889 1.41001
LeftToes  -32.1741 1.46665e-006 1.03344e-007
95
root  -42.8128 33.8199 30.3024 -166.043 -2.68733 177.039
RightUpLeg  -2.98856 -23.0845 1.07743
RightLeg  8.25057 -5.11503 -0.406243
RightFoot  -8.84948 0.0314754 0.98056
RightToes  -23.4544 -0.101541 -0.203999
Spine  -0.896444 1.55267 -1.04484
Spine1  -1.843 3.288 -1.53309
HEad  -40.445 3.89638 -4.53807
LeftShoulder1  -1.94126e-019 -3.10601e-018 -2.51263e-017
LeftArm  -19.0176 28.9126 -81.6902
LeftForeArm  28.9701 -21.5086 -3.25701
LeftHand  -0.404403 -1.22044 7.25153
RightShoulder  -4.96962e-017 0 -2.36833e-017
RightArm  -21.4489 -23.6502 78.2416
RightForeArm  58.8386 13.1981 1.33908
RightHand  -0.360373 -0.634143 -8.77759
LeftUpLeg  -41.127 3.7027 -5.16829
LeftLeg  24.12 12.7838 4.71042
LeftFoot  4.82603 -0.0499222 1.34619
LeftToes  -29.5538 1.46665e-006 1.03344e-007
96
root  -42.8679 33.6877 29.5334 -165.574 -1.88666 176.826
RightUpLeg  -2.337 -21.2253 0.496876
RightLeg  8.60551 -6.15599 -0.527052
RightFoot  -9.52637 0.0539598 1.22716
RightToes  -23.9036 -0.104098 -0.20723
Spine  -0.888913 1.72997 -1.34746
Spine1  -1.84264 3.6912 -2.15351
HEad  -41.1108 4.92791 -5.36311
LeftShoulder1  -1.94126e-019 -3.10601e-018 -2.51263e-017
LeftArm  -20.6546 29.1828 -81.3306
LeftForeArm  29.9516 -16.2609 -2.53014
LeftHand  -0.438899 -1.68608 7.37668
RightShoulder  -4.96962e-017 0 -2.36833e-017
RightArm  -19.9866 -22.8302 78.434
RightForeArm  57.4813 13.842 1.26229
RightHand  -0.36318 -0.639778 -8.69152
LeftUpLeg  -42.45 3.36302 -5.09626
LeftLeg  21.7507 13.463 4.34056
LeftFoot  3.92704 -0.0346832 1.1732
LeftToes  -29.3721 1.46665e-006 1.03344e-007
